<svg id="Layer_1" data-name="Layer 1" xmlns="http://www.w3.org/2000/svg" xmlns:xlink="http://www.w3.org/1999/xlink" viewBox="0 0 1477 683.77"><defs><style>.cls-1{fill:none;}.cls-2{fill:#fff;}.cls-3{clip-path:url(#clip-path);}.cls-4{clip-path:url(#clip-path-3);}.cls-5{font-size:232.14px;font-family:Gotham-Book, Gotham Book;}</style><clipPath id="clip-path" transform="translate(-58 -58.23)"><rect class="cls-1" x="456.63" y="419.97" width="230.57" height="299.74"/></clipPath><clipPath id="clip-path-3" transform="translate(-58 -58.23)"><rect class="cls-1" x="113.33" y="79.51" width="230.57" height="299.74"/></clipPath></defs><title>main</title><rect y="341.89" width="341.89" height="341.89"/><rect x="341.89" width="341.89" height="341.89"/><rect class="cls-2" x="340.47" y="341.89" width="341.89" height="341.89"/><rect class="cls-2" width="341.89" height="341.89"/><g id="Artwork_43" data-name="Artwork 43"><g class="cls-3"><g class="cls-3"><path d="M525.75,719.71h92.32a69.13,69.13,0,0,0,69.12-69V489a69.13,69.13,0,0,0-69.12-69H525.75a69.13,69.13,0,0,0-69.12,69V650.72a69.13,69.13,0,0,0,69.12,69M502.74,489a22.7,22.7,0,0,1,23-22.88h92.32a23,23,0,0,1,23,22.88V650.72a22.7,22.7,0,0,1-23,22.88H525.75a23,23,0,0,1-23-22.88Z" transform="translate(-58 -58.23)"/></g></g></g><g id="Artwork_43-2" data-name="Artwork 43"><g class="cls-4"><g class="cls-4"><path d="M182.45,379.24h92.32a69.13,69.13,0,0,0,69.12-69V148.5a69.13,69.13,0,0,0-69.12-69H182.45a69.13,69.13,0,0,0-69.12,69V310.25a69.13,69.13,0,0,0,69.12,69m-23-230.74a22.7,22.7,0,0,1,23-22.88h92.32a23,23,0,0,1,23,22.88V310.25a22.7,22.7,0,0,1-23,22.88H182.45a23,23,0,0,1-23-22.88Z" transform="translate(-58 -58.23)"/></g></g></g><path class="cls-2" d="M507.29,110l-.24-15a34.65,34.65,0,0,1,14.81-15.42l20.36-1.38C555.87,83,569.31,88,580,98.44c9.87,9.66,15.13,21.74,19.7,34.3a4,4,0,0,1,.24,1.38V363.52a4,4,0,0,1-.59,2.1c-4,6.52-9.13,11.87-16.56,14.68l-11,0c-14.78-5.17-19.25-15.76-18.88-30.89.8-32.37.24-64.76.24-97.15q0-51.41,0-102.83c0-11.94-9.37-23-20.64-23C520.16,126.48,512.72,120.13,507.29,110Z" transform="translate(-58 -58.23)"/><path class="cls-2" d="M190.94,450.43l-.24-15A34.65,34.65,0,0,1,205.51,420l20.36-1.38c13.65,4.9,27.09,9.87,37.75,20.3,9.87,9.66,15.13,21.74,19.7,34.3a4,4,0,0,1,.24,1.38V704a4,4,0,0,1-.59,2.1c-4,6.52-9.13,11.87-16.56,14.68l-11,0C240.6,715.62,236.13,705,236.5,689.9c.8-32.37.24-64.76.24-97.15q0-51.41,0-102.83c0-11.94-9.37-23-20.64-23C203.8,466.94,196.37,460.6,190.94,450.43Z" transform="translate(-58 -58.23)"/><text class="cls-5" transform="translate(739.72 278)">Smart<tspan x="0" y="278.57">Binary</tspan></text></svg>